<?xml version="1.0" encoding="iso-8859-1"?>
<!-- Generator: Adobe Illustrator 16.0.3, SVG Export Plug-In . SVG Version: 6.00 Build 0)  -->
<!DOCTYPE svg PUBLIC "-//W3C//DTD SVG 1.1//EN" "http://www.w3.org/Graphics/SVG/1.1/DTD/svg11.dtd">
<svg version="1.1" id="Layer_1" xmlns="http://www.w3.org/2000/svg" xmlns:xlink="http://www.w3.org/1999/xlink" x="0px" y="0px"
	 width="540.979px" height="829.452px" viewBox="0 0 540.979 829.452" style="enable-background:new 0 0 540.979 829.452;"
	 xml:space="preserve">
<g>
	<path style="fill-rule:evenodd;clip-rule:evenodd;fill:#B81A22;" d="M188.546,825.185c69.937-12.162,130.644-43.695,183.88-90.188
		c0.979-0.855,1.802-2.508,3.162-2.139c1.785,0.482,1.287,2.471,1.455,3.869c1.57,13.08-1.17,25.479-5.872,37.609
		c-4.796,12.369-12.298,23.191-19.261,34.328c0.19,0.188,0.379,0.379,0.564,0.574c1.588-0.904,3.227-1.729,4.756-2.725
		c37.539-24.445,66.611-56.891,88.027-95.916c44.885-81.785,57.564-168.418,37.112-259.666c-0.265-1.184-1.087-2.48,0.366-3.857
		c27.865,19.252,46.301,45.396,56.653,77.643c1.81-16.336,1.768-32.314,1.354-48.279c-1.222-47.193-7.424-93.641-21.563-138.83
		c-19.447-62.152-51.564-116.09-102.557-157.752c-0.977-0.799-2.32-1.412-2.369-3.523c24.131-3.488,46.314,2.248,66.947,14.602
		c1.186-2.209,0.334-3.408-0.045-4.631c-8.117-26.225-20.777-50.156-37.227-72.029c-34.198-45.473-77.779-78.83-130.952-99.148
		C280.16,2.585,246.2-3.202,210.98,1.784c-36.77,5.207-67.576,21.555-92.125,49.539c-21.343,24.33-34.986,52.676-42.597,83.857
		c-7.354,30.129-4.558,59.51,8.803,87.76c11.21,23.703,27.772,43.428,45.618,62.213c22.495,23.68,47.26,45.137,68.69,69.855
		c14.185,16.359,26.391,33.973,32.568,55.074c2.65,9.055,2.815,9.395,9.465,2.316c17.545-18.678,23.047-41.068,19.434-66.068
		c-0.168-1.162-1.299-2.4-0.075-3.617c1.403,0.215,1.887,1.396,2.593,2.262c12.358,15.137,21.07,32.371,28.344,50.336
		c12.904,31.871,20.98,64.994,24.04,99.234c2.872,32.125,2.511,63.973-11.436,94.113c-0.069,0.15,0.291,0.5,0.605,1.004
		c16.412-5.686,31.947-12.85,43.307-27.271c0.947,2.23,0.197,3.463-0.174,4.695c-13.799,45.76-34.006,88.271-64.311,125.547
		c-30.941,38.061-69.091,66.281-115.233,83.383c-48.75,18.068-99.014,21.354-150.221,15.275C12.33,790.587,6.397,789.761,0,788.931
		c1.018,2.061,2.4,2.387,3.517,3.027C61.241,825.03,122.995,836.583,188.546,825.185z M370.717,668.476
		c0.053-0.002,0.103-0.008,0.154-0.012c34.641-50.982,39.252-107.037,27.786-165.738c-3.233-16.555-8.169-32.646-14.595-48.258
		c-0.611-1.482-0.764-3.273-2.838-4.545c-0.828,3.137-1.604,6.1-2.391,9.057c-3.367,12.658-10.383,22.611-21.813,29.238
		c-4.166,2.416-4.77,2.053-4.625-2.771c1.014-33.961-4.784-66.758-17.51-98.209c-14.955-36.965-37.467-67.846-72.937-87.867
		c-5.674-3.201-11.621-5.824-17.763-7.986c-4.761-1.676-5.151-1.322-4.795,3.727c1.05,14.844-1.226,28.912-9.762,41.504
		c-0.374,0.551-0.753,1.102-1.158,1.631c-4.111,5.355-4.905,5.246-7.477-0.809c-8.661-20.398-21.015-38.586-33.847-56.486
		c-16.112-22.477-33.211-44.287-46.726-68.527c-10.404-18.658-18.667-38.098-19.044-59.891
		c-0.534-30.979,13.362-55.582,35.315-76.035c22.677-21.129,50.436-28.266,80.718-27.084c31.362,1.225,60.612,10.625,88.618,24.121
		c29.896,14.408,57.566,32.195,81.316,55.652c5.115,5.053,9.843,10.418,13.648,16.541c0.768,1.236,2.064,2.574,1.266,4.076
		c-0.845,1.588-2.683,0.918-4.101,0.918c-22.374,0.016-42.662,6.535-60.804,19.598c-5.238,3.773-5.173,3.98-0.703,8.467
		c26.648,26.744,51.226,55.209,72.141,86.721c20.588,31.02,37.304,63.861,46.998,100c1.314,4.898,2.635,9.801,3.162,16.07
		c-4.151-4.348-7.225-8.018-10.754-11.174c-10.125-9.059-22.348-13.598-35.518-16.08c-4.059-0.764-4.328,0.494-2.893,3.783
		c11.167,25.59,17.473,52.514,20.426,80.121c6.279,58.697,2.297,116.246-22.346,170.904c-9.374,20.791-22.326,39.086-41.589,52.082
		c-4.702,3.17-9.28,6.975-15.411,7.25c-0.021,0.033-0.041,0.066-0.063,0.098L370.717,668.476z"/>
	<path style="fill:#DB971E;" d="M386.282,661.214c19.263-12.996,32.215-31.291,41.589-52.082
		c24.643-54.658,28.625-112.207,22.346-170.904c-2.953-27.607-9.259-54.531-20.426-80.121c-1.436-3.289-1.166-4.547,2.893-3.783
		c13.17,2.482,25.393,7.021,35.518,16.08c3.529,3.156,6.603,6.826,10.754,11.174c-0.527-6.27-1.848-11.172-3.162-16.07
		c-9.694-36.139-26.41-68.98-46.998-100c-20.915-31.512-45.492-59.977-72.141-86.721c-4.47-4.486-4.535-4.693,0.703-8.467
		c18.142-13.063,38.43-19.582,60.804-19.598c1.418,0,3.256,0.67,4.101-0.918c0.799-1.502-0.498-2.84-1.266-4.076
		c-3.806-6.123-8.533-11.488-13.648-16.541c-23.75-23.457-51.42-41.244-81.316-55.652c-28.006-13.496-57.256-22.896-88.618-24.121
		c-30.282-1.182-58.041,5.955-80.718,27.084c-21.953,20.453-35.85,45.057-35.315,76.035c0.377,21.793,8.64,41.232,19.044,59.891
		c13.515,24.24,30.613,46.051,46.726,68.527c12.832,17.9,25.186,36.088,33.847,56.486c2.571,6.055,3.365,6.164,7.477,0.809
		c0.405-0.529,0.784-1.08,1.158-1.631c8.536-12.592,10.812-26.66,9.762-41.504c-0.356-5.049,0.034-5.402,4.795-3.727
		c6.142,2.162,12.089,4.785,17.763,7.986c35.47,20.021,57.981,50.902,72.937,87.867c12.726,31.451,18.523,64.248,17.51,98.209
		c-0.145,4.824,0.459,5.188,4.625,2.771c11.43-6.627,18.445-16.58,21.813-29.238c0.787-2.957,1.563-5.92,2.391-9.057
		c2.074,1.271,2.227,3.063,2.838,4.545c6.426,15.611,11.361,31.703,14.595,48.258c11.468,58.705,6.854,114.764-27.813,165.74
		C376.988,668.202,381.572,664.39,386.282,661.214z M201.198,238.425c-22.804-21.568-35.067-48.604-39.009-79.486
		c-1.822-14.273,2.987-26.07,14.406-35.248c19.675-15.813,41.918-25.059,67.13-26.656c29.298-1.855,51.855,13.258,62.343,41.67
		c8.116,21.992,8.869,44.496,4.392,67.396c-3.577,18.295-15.166,29.947-30.898,38.146c-12.411,6.467-25.7,10.043-39.782,10.314
		C224.416,255.173,211.86,248.509,201.198,238.425z"/>
	<path style="fill-rule:evenodd;clip-rule:evenodd;fill:#F6F23D;" d="M239.777,254.563c-15.361,0.609-27.917-6.055-38.579-16.139
		c-22.804-21.568-35.067-48.604-39.009-79.486c-1.822-14.273,2.987-26.07,14.406-35.248c19.675-15.813,41.918-25.059,67.13-26.656
		c29.298-1.855,51.855,13.258,62.343,41.67c8.116,21.992,8.869,44.496,4.392,67.396c-3.577,18.295-15.166,29.947-30.898,38.146
		C267.15,250.714,253.861,254.29,239.777,254.563z"/>
</g>
</svg>
