<?xml version="1.0" encoding="utf-8"?>
<!-- Generator: Adobe Illustrator 18.1.1, SVG Export Plug-In . SVG Version: 6.00 Build 0)  -->
<svg version="1.1" id="Layer_1" xmlns="http://www.w3.org/2000/svg" xmlns:xlink="http://www.w3.org/1999/xlink" x="0px" y="0px"
	 viewBox="0 0 510 448" enable-background="new 0 0 510 448" xml:space="preserve">
<linearGradient id="SVGID_1_" gradientUnits="userSpaceOnUse" x1="362.3836" y1="1.9061" x2="362.3836" y2="437.4621" gradientTransform="matrix(0.6979 0 0 -0.6979 2.1147 336.4784)">
	<stop  offset="0" style="stop-color:#00CB96"/>
	<stop  offset="0.1809" style="stop-color:#00ACA4"/>
	<stop  offset="0.5782" style="stop-color:#005BC7"/>
	<stop  offset="1" style="stop-color:#0000EF"/>
</linearGradient>
<rect x="0.6" y="-0.7" fill="url(#SVGID_1_)" width="508.8" height="448.9"/>
<rect x="78.3" y="81.6" fill="none" stroke="#FFFFFF" stroke-width="5.6481" stroke-miterlimit="10" width="353.4" height="284.7"/>
<g>
	<g enable-background="new    ">
		<path fill="#FFFFFF" d="M113.5,135.5l-9.8-17h3.8l7.6,13.3l7.7-13.3h3.8l-9.9,17v12.8h-3.3V135.5z"/>
	</g>
	<g enable-background="new    ">
		<path fill="#FFFFFF" d="M114.4,236.9v26.7h8.2v3.1h-11.5v-29.8H114.4z"/>
	</g>
	<g enable-background="new    ">
		<path fill="#FFFFFF" d="M117.5,192.5h12.4v0.7c0,3.3-1,6.9-2.9,9.4c-0.9,1.2-4.2,5.4-11.1,5.4c-8.8,0-15.5-6.7-15.5-15.4
			s6.7-15.4,15.5-15.4c2.9,0,6.2,0.7,9.1,2.9c1.3,1,2.6,2.4,3.4,3.5l-2.5,2.2c-0.8-1.2-1.8-2.3-2.8-3.1c-1.4-1.2-3.7-2.5-7.2-2.5
			c-7.2,0-12.2,5.4-12.2,12.3c0,8.1,6.5,12.2,12.1,12.2c4,0,7.4-2,9.1-5c0.5-0.9,1.1-2.4,1.2-4.2h-8.8V192.5z"/>
	</g>
	<g enable-background="new    ">
		<path fill="#FFFFFF" d="M123,299.2h-10.3v8.8h9.9v3.1h-9.9v14.7h-3.3V296H123V299.2z"/>
	</g>
	<g>
		<g enable-background="new    ">
			<path fill="#FFFFFF" d="M141.6,133.4c0-8.9,6.9-15.4,15.5-15.4s15.5,6.5,15.5,15.4c0,8.8-6.9,15.4-15.5,15.4
				C148.5,148.8,141.6,142.2,141.6,133.4z M145,133.4c0,6.8,5.4,12.3,12.1,12.3s12.1-5.4,12.1-12.3s-5.4-12.3-12.1-12.3
				S145,126.6,145,133.4z"/>
		</g>
		<g enable-background="new    ">
			<path fill="#FFFFFF" d="M141.6,251.8c0-8.9,6.9-15.4,15.5-15.4s15.5,6.5,15.5,15.4c0,8.8-6.9,15.4-15.5,15.4
				C148.5,267.2,141.6,260.6,141.6,251.8z M145,251.8c0,6.8,5.4,12.3,12.1,12.3s12.1-5.4,12.1-12.3c0-6.8-5.4-12.3-12.1-12.3
				S145,244.9,145,251.8z"/>
		</g>
		<g enable-background="new    ">
			<path fill="#FFFFFF" d="M141.6,192.6c0-8.9,6.9-15.4,15.5-15.4s15.5,6.5,15.5,15.4c0,8.8-6.9,15.4-15.5,15.4
				C148.5,208,141.6,201.4,141.6,192.6z M145,192.6c0,6.8,5.4,12.3,12.1,12.3s12.1-5.4,12.1-12.3s-5.4-12.3-12.1-12.3
				S145,185.8,145,192.6z"/>
		</g>
		<g enable-background="new    ">
			<path fill="#FFFFFF" d="M154.5,296c2,0,5,0.1,7.2,1.7c1.7,1.2,3.3,3.4,3.3,6.6c0,4.6-3,7.9-7.5,8.2l9.5,13.3h-4l-9.1-13h-0.8v13
				h-3.3V296H154.5z M153.1,309.8h2.1c4.1,0,6.6-2,6.6-5.4c0-1.7-0.5-3.3-2.4-4.4c-1.3-0.8-2.9-0.8-4.3-0.8h-2V309.8z"/>
		</g>
	</g>
	<g>
		<g enable-background="new    ">
			<path fill="#FFFFFF" d="M191.8,136.8c0,2.5,0,5.2,2.4,7.2c1.2,1,3.3,1.7,4.9,1.7c1.7,0,3.7-0.7,4.9-1.7c2.4-2,2.4-4.7,2.4-7.2
				v-18.3h3.3v19.2c0,2.5-0.3,4.9-1.9,7.1c-1.8,2.5-4.9,4-8.7,4c-3.8,0-6.9-1.6-8.7-4c-1.6-2.2-1.9-4.6-1.9-7.1v-19.2h3.3V136.8z"/>
		</g>
		<g enable-background="new    ">
			<path fill="#FFFFFF" d="M190.6,236.9l8.4,22.7l8.4-22.7h3.7L199,268.4L187,236.9H190.6z"/>
		</g>
		<g enable-background="new    ">
			<path fill="#FFFFFF" d="M200.7,180.8v26.7h-3.3v-26.7h-7.2v-3.1h17.8v3.1H200.7z"/>
		</g>
		<g enable-background="new    ">
			<path fill="#FFFFFF" d="M183.5,311c0-8.9,6.9-15.4,15.5-15.4s15.5,6.5,15.5,15.4c0,8.8-6.9,15.4-15.5,15.4
				C190.4,326.4,183.5,319.8,183.5,311z M186.9,311c0,6.8,5.4,12.3,12.1,12.3s12.1-5.4,12.1-12.3c0-6.8-5.4-12.3-12.1-12.3
				S186.9,304.1,186.9,311z"/>
		</g>
	</g>
	<g>
		<g enable-background="new    ">
			<path fill="#FFFFFF" d="M249.5,240h-12.1v8.8h11.8v3.1h-11.8v11.6h12.1v3.1H234v-29.8h15.5V240z"/>
		</g>
		<g enable-background="new    ">
			<path fill="#FFFFFF" d="M242.6,180.8v26.7h-3.3v-26.7h-7.2v-3.1h17.8v3.1H242.6z"/>
		</g>
		<g enable-background="new    ">
			<path fill="#FFFFFF" d="M227.7,325.8v-31l23.2,24.3V296h3.3v31.1L231,302.8v23H227.7z"/>
		</g>
	</g>
	<g>
		<g enable-background="new    ">
			<path fill="#FFFFFF" d="M289.2,199.1h-12.7l-3.6,8.4h-3.7l13.7-31.2l13.4,31.2h-3.7L289.2,199.1z M287.9,195.9l-5-11.9l-5.1,11.9
				H287.9z"/>
		</g>
		<g enable-background="new    ">
			<path fill="#FFFFFF" d="M284.5,299.2v26.7h-3.3v-26.7H274V296h17.8v3.1H284.5z"/>
		</g>
	</g>
	<g enable-background="new    ">
		<path fill="#FFFFFF" d="M325.4,299.2h-12.1v8.8h11.8v3.1h-11.8v11.6h12.1v3.1H310V296h15.5V299.2z"/>
	</g>
	<g enable-background="new    ">
		<path fill="#FFFFFF" d="M344,325.8v-31l23.2,24.3V296h3.3v31.1l-23.2-24.3v23H344z"/>
	</g>
	<g enable-background="new    ">
		<path fill="#FFFFFF" d="M387.3,296h6.1c3,0,7.2,0.3,11,3.5c2.7,2.3,5.1,6.1,5.1,11.4c0,6.3-3.1,9.6-5.2,11.4
			c-2.7,2.3-5.6,3.4-10.9,3.4h-6V296z M390.6,322.7h2.9c2.4,0,5.6-0.3,8.5-2.7c2.2-1.9,4-4.8,4-9.1c0-7.1-5-11.8-12.6-11.8h-2.9
			V322.7z"/>
	</g>
</g>
</svg>
