<?xml version="1.0" encoding="iso-8859-1"?>
<!-- Generator: Adobe Illustrator 16.0.3, SVG Export Plug-In . SVG Version: 6.00 Build 0)  -->
<!DOCTYPE svg PUBLIC "-//W3C//DTD SVG 1.1//EN" "http://www.w3.org/Graphics/SVG/1.1/DTD/svg11.dtd">
<svg version="1.1" id="Layer_1" xmlns="http://www.w3.org/2000/svg" xmlns:xlink="http://www.w3.org/1999/xlink" x="0px" y="0px"
	 width="100.128px" height="182.47px" viewBox="0 0 100.128 182.47" style="enable-background:new 0 0 100.128 182.47;"
	 xml:space="preserve">
<path style="fill-rule:evenodd;clip-rule:evenodd;" d="M13.196,180.934c-0.291-0.32-0.584-0.642-0.876-0.965
	c-3.704-8.646-7.166-17.384-9.596-26.49c-1.787-6.701-3.052-13.472-2.649-20.45c0.243-4.257,1.122-8.324,3.677-11.895
	c4.01-5.605,9.337-9.765,14.9-13.663c0.802-0.56,1.031-1.082,0.985-2.001c-0.216-4.423-0.426-8.849-0.526-13.278
	c-0.333-14.757,0.999-29.33,5.022-43.587c4.27-15.117,11.398-28.735,21.424-40.83c1.603-1.929,3.217-3.847,4.825-5.767
	c0.514-0.468,1.028-0.936,1.544-1.403c2.653-1.125,4.146-0.733,5.97,1.63c1.594,2.061,3.183,4.127,4.715,6.235
	c6.116,8.404,10.886,17.525,14.356,27.321c4.278,12.062,6.271,24.535,6.637,37.291c0.314,10.969-0.481,21.883-1.847,32.762
	c-0.091,0.717-0.112,1.269,0.591,1.799c4.703,3.535,9.131,7.403,12.635,12.148c1.625,2.203,3.1,4.665,3.982,7.238
	c1.675,4.868,1.267,9.951,0.472,14.965c-1.505,9.52-4.992,18.404-8.896,27.138c-1.765,3.948-3.688,7.827-5.536,11.737
	c-0.453,0.409-0.899,0.818-1.353,1.227c-0.625,0.128-1.248,0.345-1.879,0.37c-2.024,0.079-3.151-1.16-3.933-2.84
	c-2.984-6.4-5.98-12.794-8.933-19.209c-0.359-0.78-0.787-1.055-1.65-1.08c-11.758-0.343-23.513-0.717-35.266-1.123
	c-0.909-0.033-1.374,0.234-1.805,1.031c-3.516,6.521-7.078,13.017-10.627,19.52C17.916,181.78,16.311,182.328,13.196,180.934z"/>
<g>
	<polygon style="fill:#E44D26;" points="31.238,126.368 27.05,79.384 73.079,79.384 68.886,126.36 50.036,131.586 	"/>
	<polygon style="fill:#F16529;" points="50.064,127.593 65.295,123.369 68.879,83.227 50.064,83.227 	"/>
	<polygon style="fill:#EBEBEB;" points="50.064,100.651 42.438,100.651 41.913,94.751 50.064,94.751 50.064,88.988 50.044,88.988 
		35.615,88.988 35.753,90.534 37.169,106.414 50.064,106.414 	"/>
	<polygon style="fill:#EBEBEB;" points="50.064,115.617 50.039,115.623 43.622,113.892 43.212,109.295 40.093,109.295 
		37.427,109.295 38.234,118.343 50.038,121.62 50.064,121.612 	"/>
	<polygon style="fill:#FFFFFF;" points="50.044,100.651 50.044,106.414 57.14,106.414 56.472,113.887 50.044,115.622 
		50.044,121.617 61.857,118.343 61.944,117.369 63.298,102.198 63.438,100.651 61.887,100.651 	"/>
	<polygon style="fill:#FFFFFF;" points="50.044,88.988 50.044,92.567 50.044,94.736 50.044,94.751 63.945,94.751 63.945,94.751 
		63.964,94.751 64.079,93.455 64.342,90.534 64.479,88.988 	"/>
</g>
</svg>
