    <svg version="1.1" xmlns="http://www.w3.org/2000/svg" xmlns:xlink="http://www.w3.org/1999/xlink" x="0px" y="0px"
	 width="386.375px" height="261.375px" viewBox="286.75 147.5 386.375 261.375"
	 enable-background="new 286.75 147.5 386.375 261.375" xml:space="preserve">
<g enable-background="new    ">
	<path d="M303.125,169.375l-12.25-21.25h4.75l9.5,16.625l9.625-16.625h4.75l-12.375,21.25v16H303v-16H303.125z"/>
</g>
<g enable-background="new    ">
	<path d="M304.25,296.125V329.5h10.25v3.875h-14.375v-37.25H304.25L304.25,296.125z"/>
</g>
<g enable-background="new    ">
	<path d="M308.125,240.625h15.5v0.875c0,4.125-1.25,8.625-3.625,11.75c-1.125,1.5-5.25,6.75-13.875,6.75
		c-11,0-19.375-8.375-19.375-19.25s8.375-19.25,19.375-19.25c3.625,0,7.75,0.875,11.375,3.625c1.625,1.25,3.25,3,4.25,4.375
		l-3.125,2.75c-1-1.5-2.25-2.875-3.5-3.875c-1.75-1.5-4.625-3.125-9-3.125c-9,0-15.25,6.75-15.25,15.375
		c0,10.125,8.125,15.25,15.125,15.25c5,0,9.25-2.5,11.375-6.25c0.625-1.125,1.375-3,1.5-5.25h-11v-3.75H308.125z"/>
</g>
<g enable-background="new    ">
	<path d="M315,374h-12.875v11H314.5v3.875h-12.375v18.375H298V370h17V374z"/>
</g>
<g>
	<g enable-background="new    ">
		<path d="M338.25,166.75c0-11.125,8.625-19.25,19.375-19.25c10.75,0,19.375,8.125,19.375,19.25
			c0,11-8.625,19.25-19.375,19.25C346.875,186,338.25,177.75,338.25,166.75z M342.5,166.75c0,8.5,6.75,15.375,15.125,15.375
			c8.375,0,15.125-6.75,15.125-15.375s-6.75-15.375-15.125-15.375C349.25,151.375,342.5,158.25,342.5,166.75z"/>
	</g>
	<g enable-background="new    ">
		<path d="M338.25,314.75c0-11.125,8.625-19.25,19.375-19.25c10.75,0,19.375,8.125,19.375,19.25
			c0,11-8.625,19.25-19.375,19.25C346.875,334,338.25,325.75,338.25,314.75z M342.5,314.75c0,8.5,6.75,15.375,15.125,15.375
			c8.375,0,15.125-6.75,15.125-15.375c0-8.5-6.75-15.375-15.125-15.375C349.25,299.375,342.5,306.125,342.5,314.75z"/>
	</g>
	<g enable-background="new    ">
		<path d="M338.25,240.75c0-11.125,8.625-19.25,19.375-19.25c10.75,0,19.375,8.125,19.375,19.25
			c0,11-8.625,19.25-19.375,19.25C346.875,260,338.25,251.75,338.25,240.75z M342.5,240.75c0,8.5,6.75,15.375,15.125,15.375
			c8.375,0,15.125-6.75,15.125-15.375s-6.75-15.375-15.125-15.375C349.25,225.375,342.5,232.25,342.5,240.75z"/>
	</g>
	<g enable-background="new    ">
		<path d="M354.375,370c2.5,0,6.25,0.125,9,2.125c2.125,1.5,4.125,4.25,4.125,8.25c0,5.75-3.75,9.875-9.375,10.25
			L370,407.25h-5L353.625,391h-1v16.25H348.5V370H354.375z M352.625,387.25h2.625c5.125,0,8.25-2.5,8.25-6.75
			c0-2.125-0.625-4.125-3-5.5c-1.625-1-3.625-1-5.375-1h-2.5L352.625,387.25L352.625,387.25z"/>
	</g>
</g>
<g>
	<g enable-background="new    ">
		<path d="M401,171c0,3.125,0,6.5,3,9c1.5,1.25,4.125,2.125,6.125,2.125c2.125,0,4.625-0.875,6.125-2.125
			c3-2.5,3-5.875,3-9v-22.875h4.125v24c0,3.125-0.375,6.125-2.375,8.875c-2.25,3.125-6.125,5-10.875,5s-8.625-2-10.875-5
			c-2-2.75-2.375-5.75-2.375-8.875v-24H401V171z"/>
	</g>
	<g enable-background="new    ">
		<path d="M399.5,296.125L410,324.5l10.5-28.375h4.625L410,335.5l-15-39.375H399.5z"/>
	</g>
	<g enable-background="new    ">
		<path d="M412.125,226v33.375H408V226h-9v-3.875h22.25V226H412.125z"/>
	</g>
	<g enable-background="new    ">
		<path d="M390.625,388.75c0-11.125,8.625-19.25,19.375-19.25s19.375,8.125,19.375,19.25
			c0,11-8.625,19.25-19.375,19.25S390.625,399.75,390.625,388.75z M394.875,388.75c0,8.5,6.75,15.375,15.125,15.375
			c8.375,0,15.125-6.75,15.125-15.375c0-8.5-6.75-15.375-15.125-15.375C401.625,373.375,394.875,380.125,394.875,388.75z"/>
	</g>
</g>
<g>
	<g enable-background="new    ">
		<path d="M473.125,300H458v11h14.75v3.875H458v14.5h15.125v3.875H453.75V296h19.375V300z"/>
	</g>
	<g enable-background="new    ">
		<path d="M464.5,226v33.375h-4.125V226h-9v-3.875h22.25V226H464.5z"/>
	</g>
	<g enable-background="new    ">
		<path d="M445.875,407.25V368.5l29,30.375V370H479v38.875L450,378.5v28.75H445.875z"/>
	</g>
</g>
<g>
	<g enable-background="new    ">
		<path d="M522.75,248.875h-15.875l-4.5,10.5h-4.625l17.125-39l16.75,39H527L522.75,248.875z M521.125,244.875
			L514.875,230l-6.375,14.875H521.125z"/>
	</g>
	<g enable-background="new    ">
		<path d="M516.875,374v33.375h-4.125V374h-9v-4H526v3.875h-9.125V374z"/>
	</g>
</g>
<g enable-background="new    ">
	<path d="M568,374h-15.125v11h14.75v3.875h-14.75v14.5H568v3.875h-19.25V370h19.375v4H568z"/>
</g>
<g enable-background="new    ">
	<path d="M591.25,407.25V368.5l29,30.375V370h4.125v38.875l-29-30.375v28.75L591.25,407.25L591.25,407.25z"/>
</g>
<g enable-background="new    ">
	<path d="M645.375,370H653c3.75,0,9,0.375,13.75,4.375c3.375,2.875,6.375,7.625,6.375,14.25
		c0,7.875-3.875,12-6.5,14.25c-3.375,2.875-7,4.25-13.625,4.25h-7.5V370H645.375z M649.5,403.375h3.625c3,0,7-0.375,10.625-3.375
		c2.75-2.375,5-6,5-11.375c0-8.875-6.25-14.75-15.75-14.75h-3.625v29.5H649.5z"/>
</g>
</svg>